<svg xmlns="http://www.w3.org/2000/svg" width="25.405" height="18.346" viewBox="0 0 25.405 18.346">
  <path id="Icon_zocial-cart" data-name="Icon zocial-cart" d="M-2.07,5.695a.988.988,0,0,1,.287-.728.985.985,0,0,1,.728-.287H4.128a1.011,1.011,0,0,1,.629.21.98.98,0,0,1,.364.562L5.65,7.614H20.517l.155-.463a.912.912,0,0,1,.949-.706.679.679,0,0,1,.287.044.95.95,0,0,1,.529.353.964.964,0,0,1,.2.6,1.233,1.233,0,0,1-.044.287l-2.6,8.669a.949.949,0,0,1-.353.529.969.969,0,0,1-.6.2H6.709a.98.98,0,0,1-.629-.22,1.03,1.03,0,0,1-.364-.552L3.334,6.687h-4.39A1,1,0,0,1-1.772,6.4.941.941,0,0,1-2.07,5.695ZM6.136,9.621,7.5,15.091H18.29l.043-.2,1.589-5.272H6.136ZM7.062,20.3a1.936,1.936,0,0,1,.607-1.434,1.992,1.992,0,0,1,1.445-.6,2.029,2.029,0,0,1,0,4.058,1.992,1.992,0,0,1-1.445-.595A1.938,1.938,0,0,1,7.062,20.3ZM8.5,11.342h3.662V13.37H8.936Zm5.4,2.029.022-2.029H17.5l-.529,2.029Zm.816,6.926a1.936,1.936,0,0,1,.607-1.434,1.99,1.99,0,0,1,1.445-.6,2.029,2.029,0,0,1,0,4.058,1.99,1.99,0,0,1-1.445-.595A1.936,1.936,0,0,1,14.716,20.3Z" transform="translate(2.42 -4.33)" fill="#666" stroke="#fff" stroke-width="0.7"/>
</svg>
