<svg xmlns="http://www.w3.org/2000/svg" width="17.585" height="18.234" viewBox="0 0 17.585 18.234"><defs><style>.a{fill:#666;}</style></defs><path class="a" d="M6.9.818V5.9c0,.273.988.935,1.655,1.344v1.5a.76.76,0,0,0-.6.7V17.4a.815.815,0,0,0,.874.74h.6a.815.815,0,0,0,.873-.74V9.429a.779.779,0,0,0-.6-.7V7.247c.713-.409,1.77-1.091,1.77-1.364V.818a.688.688,0,0,0-.759-.74h-.3v5.3c0,.117-.184.234-.414.234s-.414-.1-.414-.234V.078H8.8v5.3c0,.117-.184.234-.414.234s-.414-.1-.414-.234V.078H7.839A.855.855,0,0,0,6.9.818Zm8.367-.7a5.286,5.286,0,0,1,2.322,4.676v.662c0,3.351-.874,4.812-1.448,5.669V17.67a.6.6,0,0,1-.644.545h-.46a.6.6,0,0,1-.644-.545V10.812c0-.039-.023-.1-.023-.156V.877C14.39.448,14.574-.117,15.263.117ZM0,3.448C0,1.539,1.126,0,2.529,0S5.057,1.539,5.057,3.448A3.408,3.408,0,0,1,3.1,6.8V8.942a.76.76,0,0,1,.6.7v7.851a.815.815,0,0,1-.874.74h-.6a.815.815,0,0,1-.874-.74V9.6a.779.779,0,0,1,.6-.7V6.76A3.313,3.313,0,0,1,0,3.448Z" transform="translate(0)"/></svg>