<svg xmlns="http://www.w3.org/2000/svg" width="16.93" height="21.19" viewBox="0 0 16.93 21.19">
  <g id="Icon_ionic-ios-notifications-outline" data-name="Icon ionic-ios-notifications-outline" transform="translate(-6.775 -3.931)">
    <path id="Path_103806" data-name="Path 103806" d="M18.972,28.336a.686.686,0,0,0-.673.54,1.328,1.328,0,0,1-.265.577,1,1,0,0,1-.853.313,1.018,1.018,0,0,1-.853-.313,1.328,1.328,0,0,1-.265-.577.686.686,0,0,0-.673-.54h0a.691.691,0,0,0-.673.842,2.367,2.367,0,0,0,2.463,1.965,2.363,2.363,0,0,0,2.463-1.965.693.693,0,0,0-.673-.842Z" transform="translate(-1.956 -6.023)"/>
    <path id="Path_103807" data-name="Path 103807" d="M23.492,19.623c-.816-1.075-2.42-1.705-2.42-6.519,0-4.941-2.182-6.927-4.216-7.4-.191-.048-.328-.111-.328-.312V5.233a1.3,1.3,0,0,0-1.271-1.3h-.032a1.3,1.3,0,0,0-1.271,1.3v.154c0,.2-.138.265-.328.312-2.039.482-4.216,2.463-4.216,7.4,0,4.814-1.6,5.439-2.42,6.519a1.051,1.051,0,0,0,.842,1.684H22.666A1.052,1.052,0,0,0,23.492,19.623Zm-2.066.307H9.076a.232.232,0,0,1-.175-.387,6.416,6.416,0,0,0,1.112-1.769,12,12,0,0,0,.757-4.671,8.122,8.122,0,0,1,1.107-4.6,3.4,3.4,0,0,1,2.05-1.462,1.856,1.856,0,0,0,.985-.556.419.419,0,0,1,.63-.011,1.919,1.919,0,0,0,1,.567,3.4,3.4,0,0,1,2.05,1.462A8.122,8.122,0,0,1,19.7,13.1a12,12,0,0,0,.757,4.671,6.489,6.489,0,0,0,1.139,1.8A.219.219,0,0,1,21.427,19.93Z"/>
  </g>
</svg>
