<svg xmlns="http://www.w3.org/2000/svg" width="18.114" height="18.114" viewBox="0 0 18.114 18.114"><defs><style>.a{fill:#666;}</style></defs><path class="a" d="M16.7,17.095H15.176c-.025-.135-.057-.268-.091-.4L17.8,15.337a.566.566,0,0,0-.507-1.013l-2.591,1.3A6.218,6.218,0,0,0,2.938,17.095H1.415A1.417,1.417,0,0,0,0,18.51a1.133,1.133,0,0,0,.286.752l1.978,2.226v.418a1.417,1.417,0,0,0,1.415,1.415H14.435a1.416,1.416,0,0,0,1.415-1.415v-.418l1.978-2.226a1.131,1.131,0,0,0,.286-.752A1.416,1.416,0,0,0,16.7,17.095Zm-2.1,0h-.318l.282-.142C14.579,17,14.594,17.047,14.6,17.095ZM9.057,12.566A5.663,5.663,0,0,1,14.2,15.872l-.5.252a5.09,5.09,0,0,0-9.6.97H3.511A5.67,5.67,0,0,1,9.057,12.566Zm2.59,4.529a2.825,2.825,0,0,0-5.181,0H5.859a3.392,3.392,0,0,1,6.316-.211l-.421.211Zm-2.59-.566a1.689,1.689,0,0,0-1.257.566H7.108a2.244,2.244,0,0,1,3.9,0h-.693A1.685,1.685,0,0,0,9.057,16.529Zm0-2.264a3.968,3.968,0,0,0-3.8,2.83H4.677a4.522,4.522,0,0,1,8.509-.717l-.506.252A3.969,3.969,0,0,0,9.057,14.264Zm5.661,6.793v.849a.284.284,0,0,1-.283.283H3.679a.283.283,0,0,1-.283-.283v-.849L1.132,18.51a.283.283,0,0,1,.283-.283H16.7a.284.284,0,0,1,.283.283Z" transform="translate(0 -5.207)"/><path class="a" d="M7.875,8.583l0,.01h0a.282.282,0,0,0,.251.153.285.285,0,0,0,.284-.285.267.267,0,0,0-.01-.071.019.019,0,0,0,0-.011,2.135,2.135,0,0,1,.237-1.637,2.554,2.554,0,0,0,.239-2.064.277.277,0,0,0-.536.1.269.269,0,0,0,.018.1.007.007,0,0,0,0,0l0,.005,0,.007a2.058,2.058,0,0,1-.242,1.638,2.591,2.591,0,0,0-.262,2.033C7.868,8.567,7.871,8.575,7.875,8.583Z" transform="translate(-3.359 -1.953)"/><path class="a" d="M20.053,8.437a.04.04,0,0,1,0,.01h0a.284.284,0,0,0,.536-.131.293.293,0,0,0-.01-.071.013.013,0,0,0,0-.011A2.14,2.14,0,0,1,20.821,6.6a2.554,2.554,0,0,0,.239-2.064.277.277,0,0,0-.536.1.282.282,0,0,0,.019.1v0l0,.005a.016.016,0,0,1,0,.007A2.056,2.056,0,0,1,20.3,6.381a2.594,2.594,0,0,0-.261,2.033C20.047,8.422,20.049,8.43,20.053,8.437Z" transform="translate(-8.644 -1.89)"/><path class="a" d="M14.916,4.083l0,.01h0a.283.283,0,0,0,.535-.131.267.267,0,0,0-.01-.071.019.019,0,0,0,0-.011,2.135,2.135,0,0,1,.237-1.637A2.554,2.554,0,0,0,15.923.178a.277.277,0,0,0-.536.1.269.269,0,0,0,.018.1.007.007,0,0,0,0,0l0,.005,0,.007a2.058,2.058,0,0,1-.242,1.638,2.59,2.59,0,0,0-.262,2.033Z" transform="translate(-6.415)"/></svg>