<?xml version="1.0" encoding="UTF-8"?>
<svg xmlns="http://www.w3.org/2000/svg" xmlns:xlink="http://www.w3.org/1999/xlink" width="18pt" height="18pt" viewBox="0 0 18 18" version="1.1">
<g id="surface1">
<path style=" stroke:none;fill-rule:nonzero;fill:rgb(0%,0%,0%);fill-opacity:1;" d="M 8.539062 0.570312 C 7.257812 0.660156 6.0625 1.375 5.351562 2.472656 C 4.417969 3.917969 4.457031 5.78125 5.453125 7.183594 C 6.277344 8.347656 7.679688 9.03125 9.085938 8.953125 C 11.078125 8.847656 12.652344 7.453125 13.027344 5.464844 C 13.113281 5.007812 13.082031 4.183594 12.960938 3.726562 C 12.777344 3.019531 12.417969 2.375 11.921875 1.851562 C 11.035156 0.925781 9.851562 0.476562 8.539062 0.570312 Z M 9.738281 1.367188 C 11.347656 1.785156 12.4375 3.253906 12.363281 4.90625 C 12.320312 5.820312 11.984375 6.585938 11.339844 7.226562 C 10.761719 7.804688 10.046875 8.140625 9.226562 8.226562 C 7.34375 8.421875 5.640625 7.046875 5.414062 5.148438 C 5.222656 3.570312 6.171875 2.039062 7.683594 1.472656 C 8.277344 1.25 9.121094 1.210938 9.738281 1.367188 Z M 9.738281 1.367188 "/>
<path style=" stroke:none;fill-rule:nonzero;fill:rgb(0%,0%,0%);fill-opacity:1;" d="M 8.351562 10.039062 C 6.675781 10.179688 5.148438 10.914062 4.007812 12.117188 C 2.847656 13.347656 2.203125 14.917969 2.121094 16.707031 L 2.097656 17.1875 L 2.207031 17.292969 L 2.3125 17.402344 L 15.453125 17.402344 L 15.550781 17.304688 C 15.640625 17.210938 15.644531 17.191406 15.644531 16.8125 C 15.644531 16.160156 15.484375 15.25 15.25 14.59375 C 14.902344 13.609375 14.414062 12.8125 13.695312 12.066406 C 12.671875 11 11.40625 10.34375 9.933594 10.109375 C 9.585938 10.050781 8.679688 10.015625 8.351562 10.039062 Z M 9.648438 10.796875 C 11.785156 11.046875 13.617188 12.460938 14.449219 14.507812 C 14.695312 15.117188 14.828125 15.683594 14.921875 16.53125 L 14.941406 16.699219 L 2.804688 16.699219 L 2.828125 16.601562 C 2.832031 16.546875 2.855469 16.394531 2.867188 16.257812 C 2.945312 15.402344 3.304688 14.335938 3.769531 13.589844 C 4.253906 12.8125 4.960938 12.097656 5.707031 11.640625 C 6.910156 10.90625 8.207031 10.628906 9.648438 10.796875 Z M 9.648438 10.796875 "/>
</g>
</svg>
