<svg xmlns="http://www.w3.org/2000/svg" width="20.036" height="19.167" viewBox="0 0 20.036 19.167"><defs><style>.a{fill:#e83f3b;stroke:#e83f3b;stroke-width:0.5px;}</style></defs><g transform="translate(-13.75 -1.75)"><g transform="translate(14)"><path class="a" d="M33.133,14.255H29.661V11.871l3.755-3.755a.4.4,0,0,0,0-.571L31.7,5.833a.4.4,0,0,0-.571,0L29.661,7.3V2.4a.4.4,0,0,0-.4-.4H14.4a.4.4,0,0,0-.4.4V7.676a.4.4,0,1,0,.807,0V2.807H28.854v5.3l-3.56,3.56h-5.44a.4.4,0,0,0,0,.807h4.633L23.065,13.9a.4.4,0,0,0-.084.123l-1.238,2.815H17.185a.4.4,0,0,0,0,.807h9.032a.4.4,0,1,0,0-.807H23.927l1.3-.571a.4.4,0,0,0,.123-.084l3.505-3.505v5.647a2.331,2.331,0,0,0,.575,1.534H16.341a1.536,1.536,0,0,1-1.534-1.534V11.309a.4.4,0,0,0-.807,0v7.017a2.344,2.344,0,0,0,2.341,2.341H31.2a2.344,2.344,0,0,0,2.341-2.341V14.659A.4.4,0,0,0,33.133,14.255Zm-10.339,2.2.689-1.567.878.878Zm2.27-1.128-.571-.571-.571-.571,7.5-7.5L32.56,7.831Zm7.666,3a1.534,1.534,0,0,1-3.068,0V15.063h3.068Z" transform="translate(-14)"/><path class="a" d="M83.3,353.974h2.817a.4.4,0,1,0,0-.807H83.3a.4.4,0,1,0,0,.807Z" transform="translate(-80.114 -338.912)"/><path class="a" d="M83.3,289.17a.4.4,0,1,0,0,.807h.409a.4.4,0,1,0,0-.807Z" transform="translate(-80.114 -277.498)"/><path class="a" d="M14.4,225.977a.4.4,0,1,0-.285-.118A.407.407,0,0,0,14.4,225.977Z" transform="translate(-14 -216.081)"/></g></g></svg>